<?xml version="1.0" encoding="UTF-8" standalone="no"?>
<!-- Created with Inkscape (http://www.inkscape.org/) -->

<svg
   width="160mm"
   height="290mm"
   viewBox="0 0 160 290"
   version="1.1"
   id="svg1"
   xmlns="http://www.w3.org/2000/svg"
   xmlns:svg="http://www.w3.org/2000/svg">
  <defs
     id="defs1" />
  <g
     id="layer1">
    <g
       id="g18"
       transform="matrix(1.9100612,0,0,1.9100612,-21.611487,-23.312068)">
      <path
         style="fill:none;stroke:#000000;stroke-width:6.0314;stroke-linecap:butt;stroke-linejoin:miter;stroke-dasharray:none;stroke-opacity:1"
         d="M 149.32631,162.77913 148.98998,13.1165 v 0"
         id="path10"
         transform="matrix(1.0082399,0,0,0.67374361,-97.050647,53.245035)" />
      <path
         style="fill:none;stroke:#000000;stroke-width:4;stroke-linecap:butt;stroke-linejoin:miter;stroke-dasharray:none;stroke-opacity:1"
         d="m 136.75149,53.871801 c -0.43075,-6.366963 1.28914,-12.837837 4.69652,-18.233532 1.37817,-2.18237 3.02482,-4.195005 4.89103,-5.978079 1.8538,2.069056 3.49549,4.328051 4.89103,6.730145 3.19897,5.506279 5.09458,11.8779 4.69652,18.233531 -0.45511,7.26657 -4.00532,14.288283 -9.58755,18.962562 -5.56693,-5.012751 -9.0819,-12.240492 -9.58755,-19.714627 z"
         id="path15-2-2"
         transform="matrix(-0.58563096,0.81057781,0.81057781,0.58563096,75.36717,-27.83815)" />
      <path
         style="fill:none;stroke:#000000;stroke-width:4;stroke-linecap:butt;stroke-linejoin:miter;stroke-dasharray:none;stroke-opacity:1"
         d="m 136.75149,53.871801 c -0.43075,-6.366963 1.28914,-12.837837 4.69652,-18.233532 1.37817,-2.18237 3.02482,-4.195005 4.89103,-5.978079 1.8538,2.069056 3.49549,4.328051 4.89103,6.730145 3.19897,5.506279 5.09458,11.8779 4.69652,18.233531 -0.45511,7.26657 -4.00532,14.288283 -9.58755,18.962562 -5.56693,-5.012751 -9.0819,-12.240492 -9.58755,-19.714627 z"
         id="path15-2-2-0"
         transform="matrix(-0.51020601,0.70618135,0.70618135,0.51020601,71.35826,-32.09269)" />
      <path
         style="fill:none;stroke:#000000;stroke-width:4;stroke-linecap:butt;stroke-linejoin:miter;stroke-dasharray:none;stroke-opacity:1"
         d="m 136.75149,53.871801 c -0.43075,-6.366963 1.28914,-12.837837 4.69652,-18.233532 1.37817,-2.18237 3.02482,-4.195005 4.89103,-5.978079 1.8538,2.069056 3.49549,4.328051 4.89103,6.730145 3.19897,5.506279 5.09458,11.8779 4.69652,18.233531 -0.45511,7.26657 -4.00532,14.288283 -9.58755,18.962562 -5.56693,-5.012751 -9.0819,-12.240492 -9.58755,-19.714627 z"
         id="path15-2-2-0-7"
         transform="matrix(-0.43731944,0.6052983,0.6052983,0.43731944,68.27419,-33.166073)" />
      <path
         style="fill:none;stroke:#000000;stroke-width:4;stroke-linecap:butt;stroke-linejoin:miter;stroke-dasharray:none;stroke-opacity:1"
         d="m 136.75149,53.871801 c -0.43075,-6.366963 1.28914,-12.837837 4.69652,-18.233532 1.37817,-2.18237 3.02482,-4.195005 4.89103,-5.978079 1.8538,2.069056 3.49549,4.328051 4.89103,6.730145 3.19897,5.506279 5.09458,11.8779 4.69652,18.233531 -0.45511,7.26657 -4.00532,14.288283 -9.58755,18.962562 -5.56693,-5.012751 -9.0819,-12.240492 -9.58755,-19.714627 z"
         id="path15-2-2-0-7-2"
         transform="matrix(-0.36443287,0.50441525,0.50441525,0.36443287,66.08517,-30.449163)" />
      <path
         style="fill:none;stroke:#000000;stroke-width:4;stroke-linecap:butt;stroke-linejoin:miter;stroke-dasharray:none;stroke-opacity:1"
         d="m 136.75149,53.871801 c -0.43075,-6.366963 1.28914,-12.837837 4.69652,-18.233532 1.37817,-2.18237 3.02482,-4.195005 4.89103,-5.978079 1.8538,2.069056 3.49549,4.328051 4.89103,6.730145 3.19897,5.506279 5.09458,11.8779 4.69652,18.233531 -0.45511,7.26657 -4.00532,14.288283 -9.58755,18.962562 -5.56693,-5.012751 -9.0819,-12.240492 -9.58755,-19.714627 z"
         id="path15-2-2-7"
         transform="rotate(54.152423,42.498208,15.612837)" />
      <path
         style="fill:none;stroke:#000000;stroke-width:4;stroke-linecap:butt;stroke-linejoin:miter;stroke-dasharray:none;stroke-opacity:1"
         d="m 136.75149,53.871801 c -0.43075,-6.366963 1.28914,-12.837837 4.69652,-18.233532 1.37817,-2.18237 3.02482,-4.195005 4.89103,-5.978079 1.8538,2.069056 3.49549,4.328051 4.89103,6.730145 3.19897,5.506279 5.09458,11.8779 4.69652,18.233531 -0.45511,7.26657 -4.00532,14.288283 -9.58755,18.962562 -5.56693,-5.012751 -9.0819,-12.240492 -9.58755,-19.714627 z"
         id="path15-2-2-0-2"
         transform="matrix(0.51020601,0.70618135,-0.70618135,0.51020601,34.27427,-32.233168)" />
      <path
         style="fill:none;stroke:#000000;stroke-width:4;stroke-linecap:butt;stroke-linejoin:miter;stroke-dasharray:none;stroke-opacity:1"
         d="m 136.75149,53.871801 c -0.43075,-6.366963 1.28914,-12.837837 4.69652,-18.233532 1.37817,-2.18237 3.02482,-4.195005 4.89103,-5.978079 1.8538,2.069056 3.49549,4.328051 4.89103,6.730145 3.19897,5.506279 5.09458,11.8779 4.69652,18.233531 -0.45511,7.26657 -4.00532,14.288283 -9.58755,18.962562 -5.56693,-5.012751 -9.0819,-12.240492 -9.58755,-19.714627 z"
         id="path15-2-2-0-7-6"
         transform="matrix(0.43731944,0.6052983,-0.6052983,0.43731944,37.35834,-33.306551)" />
      <path
         style="fill:none;stroke:#000000;stroke-width:4;stroke-linecap:butt;stroke-linejoin:miter;stroke-dasharray:none;stroke-opacity:1"
         d="m 136.75149,53.871801 c -0.43075,-6.366963 1.28914,-12.837837 4.69652,-18.233532 1.37817,-2.18237 3.02482,-4.195005 4.89103,-5.978079 1.8538,2.069056 3.49549,4.328051 4.89103,6.730145 3.19897,5.506279 5.09458,11.8779 4.69652,18.233531 -0.45511,7.26657 -4.00532,14.288283 -9.58755,18.962562 -5.56693,-5.012751 -9.0819,-12.240492 -9.58755,-19.714627 z"
         id="path15-2-2-0-7-2-3"
         transform="matrix(0.36443287,0.50441525,-0.50441525,0.36443287,39.54736,-30.589641)" />
      <path
         style="fill:none;stroke:#000000;stroke-width:4;stroke-linecap:butt;stroke-linejoin:miter;stroke-dasharray:none;stroke-opacity:1"
         d="m 136.75149,53.871801 c -0.43075,-6.366963 1.28914,-12.837837 4.69652,-18.233532 1.37817,-2.18237 3.02482,-4.195005 4.89103,-5.978079 1.8538,2.069056 3.49549,4.328051 4.89103,6.730145 3.19897,5.506279 5.09458,11.8779 4.69652,18.233531 -0.45511,7.26657 -4.00532,14.288283 -9.58755,18.962562 -5.56693,-5.012751 -9.0819,-12.240492 -9.58755,-19.714627 z"
         id="path15-2-2-0-7-2-7"
         transform="matrix(-0.62490698,-0.07877545,-0.01904779,0.61728477,145.89617,29.015662)" />
      <path
         style="fill:none;stroke:#000000;stroke-width:2;stroke-linecap:butt;stroke-linejoin:miter;stroke-dasharray:none;stroke-opacity:1"
         d="M 53.430384,22.951196 V 35.069428"
         id="path18"
         transform="matrix(1,0,0,1.7121212,0.52916667,-27.090349)" />
      <path
         style="fill:none;stroke:#000000;stroke-width:2;stroke-linecap:butt;stroke-linejoin:miter;stroke-dasharray:none;stroke-opacity:1"
         d="M 53.430384,22.951196 V 35.069428"
         id="path18-5"
         transform="matrix(1,0,0,1.7121212,20.8592,-12.082567)" />
      <path
         style="fill:none;stroke:#000000;stroke-width:2;stroke-linecap:butt;stroke-linejoin:miter;stroke-dasharray:none;stroke-opacity:1"
         d="M 53.430384,22.951196 V 35.069428"
         id="path18-3"
         transform="matrix(1,0,0,1.7121212,-22.057368,-11.319005)" />
      <path
         style="fill:none;stroke:#000000;stroke-width:2;stroke-linecap:butt;stroke-linejoin:miter;stroke-dasharray:none;stroke-opacity:1"
         d="M 53.430384,22.951196 V 35.069428"
         id="path18-39"
         transform="matrix(1,0,0,1.7121212,32.085349,4.6662669)" />
      <path
         style="fill:none;stroke:#000000;stroke-width:2;stroke-linecap:butt;stroke-linejoin:miter;stroke-dasharray:none;stroke-opacity:1"
         d="M 53.430384,22.951196 V 35.069428"
         id="path18-6"
         transform="matrix(1,0,0,1.7121212,-32.71448,5.7292184)" />
    </g>
  </g>
</svg>
